# xmcd
# 
# Track frame offsets:
#     150
#     12359
#     25697
#     39269
#     53040
#     63746
#     74884
#     88670
#     102678
#     113974
#     122306
#     136619
#     151745
#     166107
#     179591
#     196626
#     211911
#     222595
#     230545
#     243142
#     256463
#     272115
#     290280
#     305597
#     317800
# 
# Disc length: 4440
# 
# Revision: 0
# Processed by: cddbd v1.5.2PL0 Copyright (c) Steve Scherf et al.
# Submitted via: fre:ac v1.0.31
# 
DISCID=65115619
DTITLE=Renate Bergmann - Ich habe gar keine Enkel
DYEAR=0
DGENRE=
TTITLE0=001_Bergmann_Ich_habe_gar_keine_Enkel_CD01
TTITLE1=002_Bergmann_Ich_habe_gar_keine_Enkel_CD01
TTITLE2=003_Bergmann_Ich_habe_gar_keine_Enkel_CD01
TTITLE3=004_Bergmann_Ich_habe_gar_keine_Enkel_CD01
TTITLE4=005_Bergmann_Ich_habe_gar_keine_Enkel_CD01
TTITLE5=006_Bergmann_Ich_habe_gar_keine_Enkel_CD01
TTITLE6=007_Bergmann_Ich_habe_gar_keine_Enkel_CD01
TTITLE7=008_Bergmann_Ich_habe_gar_keine_Enkel_CD01
TTITLE8=009_Bergmann_Ich_habe_gar_keine_Enkel_CD01
TTITLE9=010_Bergmann_Ich_habe_gar_keine_Enkel_CD01
TTITLE10=011_Bergmann_Ich_habe_gar_keine_Enkel_CD01
TTITLE11=012_Bergmann_Ich_habe_gar_keine_Enkel_CD01
TTITLE12=013_Bergmann_Ich_habe_gar_keine_Enkel_CD01
TTITLE13=014_Bergmann_Ich_habe_gar_keine_Enkel_CD01
TTITLE14=015_Bergmann_Ich_habe_gar_keine_Enkel_CD01
TTITLE15=016_Bergmann_Ich_habe_gar_keine_Enkel_CD01
TTITLE16=017_Bergmann_Ich_habe_gar_keine_Enkel_CD01
TTITLE17=018_Bergmann_Ich_habe_gar_keine_Enkel_CD01
TTITLE18=019_Bergmann_Ich_habe_gar_keine_Enkel_CD01
TTITLE19=020_Bergmann_Ich_habe_gar_keine_Enkel_CD01
TTITLE20=021_Bergmann_Ich_habe_gar_keine_Enkel_CD01
TTITLE21=022_Bergmann_Ich_habe_gar_keine_Enkel_CD01
TTITLE22=023_Bergmann_Ich_habe_gar_keine_Enkel_CD01
TTITLE23=024_Bergmann_Ich_habe_gar_keine_Enkel_CD01
TTITLE24=025_Bergmann_Ich_habe_gar_keine_Enkel_CD01
EXTD=
EXTT0=
EXTT1=
EXTT2=
EXTT3=
EXTT4=
EXTT5=
EXTT6=
EXTT7=
EXTT8=
EXTT9=
EXTT10=
EXTT11=
EXTT12=
EXTT13=
EXTT14=
EXTT15=
EXTT16=
EXTT17=
EXTT18=
EXTT19=
EXTT20=
EXTT21=
EXTT22=
EXTT23=
EXTT24=
PLAYORDER=
